<svg xmlns="http://www.w3.org/2000/svg" viewBox="0 0 512 512" width="512" height="512">
  <defs>
    <linearGradient id="brandH" x1="0%" y1="0%" x2="100%" y2="0%">
      <stop offset="0%" stop-color="#8B5CF6"/>
      <stop offset="100%" stop-color="#22D3EE"/>
    </linearGradient>
    <clipPath id="clip512">
      <rect x="0" y="0" width="512" height="512" rx="116"/>
    </clipPath>
  </defs>
  <!-- 배경 -->
  <rect x="0" y="0" width="512" height="512" rx="116" fill="#100020"/>
  <g clip-path="url(#clip512)">
    <!-- 배경 흰색 W 선 (반투명) -->
    <polyline points="16,16 96,320 176,144 256,320 336,144 416,320 496,16"
      fill="none" stroke="#FFFFFF" stroke-width="112"
      stroke-linecap="round" stroke-linejoin="round" stroke-opacity="0.055"/>
    <!-- 네온 W 윤곽 -->
    <polyline points="48,112 120,352 192,208 256,352 320,208 392,352 464,112"
      fill="none" stroke="url(#brandH)" stroke-width="18"
      stroke-linecap="round" stroke-linejoin="round"/>
    <!-- 배경 별 스팟 -->
    <circle cx="60" cy="60" r="6" fill="#8B5CF6" fill-opacity="0.5"/>
    <circle cx="452" cy="52" r="5" fill="#22D3EE" fill-opacity="0.45"/>
    <circle cx="480" cy="160" r="4" fill="#8B5CF6" fill-opacity="0.3"/>
    <circle cx="28" cy="280" r="3" fill="#22D3EE" fill-opacity="0.3"/>
    <!-- 캐릭터 왼쪽 -->
    <circle cx="120" cy="376" r="64" fill="#FFFFFF" stroke="#8B5CF6" stroke-width="7"/>
    <ellipse cx="120" cy="440" rx="50" ry="32" fill="#FFFFFF" stroke="#8B5CF6" stroke-width="5.5"/>
    <circle cx="100" cy="366" r="10.5" fill="#100020"/>
    <circle cx="140" cy="366" r="10.5" fill="#100020"/>
    <circle cx="102" cy="362" r="4" fill="#FFFFFF" fill-opacity="0.5"/>
    <circle cx="142" cy="362" r="4" fill="#FFFFFF" fill-opacity="0.5"/>
    <path d="M101,388 Q120,404 139,388" fill="none" stroke="#8B5CF6" stroke-width="7" stroke-linecap="round"/>
    <ellipse cx="80" cy="374" rx="16" ry="9" fill="#8B5CF6" fill-opacity="0.28"/>
    <ellipse cx="160" cy="374" rx="16" ry="9" fill="#8B5CF6" fill-opacity="0.28"/>
    <!-- 캐릭터 가운데 -->
    <circle cx="256" cy="380" r="76" fill="#FFFFFF" stroke="url(#brandH)" stroke-width="8.5"/>
    <ellipse cx="256" cy="456" rx="60" ry="38" fill="#FFFFFF" stroke="url(#brandH)" stroke-width="7"/>
    <circle cx="232" cy="368" r="12.5" fill="#100020"/>
    <circle cx="280" cy="368" r="12.5" fill="#100020"/>
    <circle cx="234" cy="364" r="5" fill="#FFFFFF" fill-opacity="0.5"/>
    <circle cx="282" cy="364" r="5" fill="#FFFFFF" fill-opacity="0.5"/>
    <path d="M234,394 Q256,412 278,394" fill="none" stroke="#22D3EE" stroke-width="8.5" stroke-linecap="round"/>
    <ellipse cx="210" cy="378" rx="20" ry="11" fill="#A78BFA" fill-opacity="0.3"/>
    <ellipse cx="302" cy="378" rx="20" ry="11" fill="#22D3EE" fill-opacity="0.3"/>
    <!-- 캐릭터 오른쪽 -->
    <circle cx="392" cy="376" r="64" fill="#FFFFFF" stroke="#22D3EE" stroke-width="7"/>
    <ellipse cx="392" cy="440" rx="50" ry="32" fill="#FFFFFF" stroke="#22D3EE" stroke-width="5.5"/>
    <circle cx="372" cy="366" r="10.5" fill="#100020"/>
    <circle cx="412" cy="366" r="10.5" fill="#100020"/>
    <circle cx="374" cy="362" r="4" fill="#FFFFFF" fill-opacity="0.5"/>
    <circle cx="414" cy="362" r="4" fill="#FFFFFF" fill-opacity="0.5"/>
    <path d="M373,388 Q392,404 411,388" fill="none" stroke="#22D3EE" stroke-width="7" stroke-linecap="round"/>
    <ellipse cx="352" cy="374" rx="16" ry="9" fill="#22D3EE" fill-opacity="0.28"/>
    <ellipse cx="432" cy="374" rx="16" ry="9" fill="#22D3EE" fill-opacity="0.28"/>
  </g>
  <!-- 테두리 -->
  <rect x="0" y="0" width="512" height="512" rx="116" fill="none" stroke="url(#brandH)" stroke-width="6" stroke-opacity="0.65"/>
</svg>
